<svg xmlns="http://www.w3.org/2000/svg" viewBox="0 0 256 256" style="enable-background:new 0 0 256 256" xml:space="preserve"><style>.st2{fill:none;stroke:#6b1d1d;stroke-width:.5;stroke-miterlimit:10}.st3{fill:#3a312a}.st14{fill:#d7e057}</style><g id="Layer_1"><path class="st14" d="M47.119 26.29s3.408 12.659 13.222 13.246c0 0-13.1 4.525-13.321 14.202 0 0-2.578-13.572-12.925-14.059-.001 0 12.05-1.825 13.024-13.389z"/><path class="st3" d="M47.019 55.237a1.502 1.502 0 0 1-1.473-1.217c-.023-.124-2.494-12.417-11.522-12.842a1.5 1.5 0 0 1-.155-2.982c.441-.069 10.895-1.817 11.754-12.032a1.501 1.501 0 0 1 1.359-1.367 1.49 1.49 0 0 1 1.584 1.101c.031.116 3.26 11.626 11.864 12.14a1.501 1.501 0 0 1 .402 2.915c-.121.042-12.119 4.311-12.313 12.819a1.497 1.497 0 0 1-1.5 1.465zm-7.742-15.729c3.878 1.969 6.231 5.746 7.587 8.877 2.026-4.022 5.941-6.787 8.949-8.427-4.135-1.842-6.783-5.651-8.335-8.722-1.793 4.359-5.27 6.868-8.201 8.272z"/><path class="st14" d="M25.42 43.27s2.411 8.954 9.352 9.369c0 0-9.266 3.201-9.422 10.045 0 0-1.824-9.6-9.142-9.944-.001.001 8.523-1.291 9.212-9.47z"/><path class="st3" d="M25.349 64.185a1.5 1.5 0 0 1-1.473-1.22c-.016-.082-1.704-8.442-7.739-8.726a1.502 1.502 0 0 1-.155-2.982c.296-.047 7.364-1.243 7.942-8.113a1.501 1.501 0 0 1 1.361-1.368 1.505 1.505 0 0 1 1.581 1.101c.022.079 2.229 7.92 7.994 8.264a1.5 1.5 0 0 1 .4 2.915c-.081.028-8.282 2.953-8.412 8.662a1.501 1.501 0 0 1-1.499 1.467zm-4.52-11.527c2.107 1.333 3.523 3.394 4.447 5.28 1.376-2.232 3.516-3.872 5.365-4.973-2.287-1.269-3.884-3.35-4.941-5.224-1.173 2.287-3.015 3.875-4.871 4.917z"/><path class="st14" d="M25.42 16.613s2.411 8.954 9.352 9.37c0 0-9.266 3.201-9.422 10.045 0 0-1.824-9.6-9.142-9.944-.001-.001 8.523-1.292 9.212-9.471z"/><path class="st3" d="M25.349 37.528a1.5 1.5 0 0 1-1.473-1.22c-.016-.081-1.704-8.442-7.739-8.726a1.502 1.502 0 0 1-.155-2.982c.296-.047 7.364-1.243 7.942-8.114a1.501 1.501 0 0 1 1.361-1.368 1.507 1.507 0 0 1 1.581 1.101c.022.079 2.229 7.92 7.994 8.265a1.5 1.5 0 0 1 .4 2.915c-.081.028-8.282 2.952-8.412 8.662a1.501 1.501 0 0 1-1.499 1.467zM20.829 26c2.107 1.333 3.523 3.395 4.447 5.28 1.376-2.232 3.516-3.872 5.365-4.973-2.287-1.269-3.884-3.35-4.941-5.223-1.173 2.286-3.015 3.875-4.871 4.916z"/><path d="M18.094 148.74c-2.563-70.242 66.832-31.431 87.322-57.684 22.055-28.259-24.535-68.133 1.98-73.134 60.784-11.464 119.353 28.517 130.818 89.301 11.464 60.784-28.517 119.353-89.301 130.818S20.35 210.554 18.094 148.74z" style="fill:#fce8cb"/><path class="st3" d="M127.586 241.503c-27.336 0-55.024-9.21-75.885-25.871-21.698-17.331-34.166-41.068-35.106-66.838-1.656-45.405 26.572-46.769 51.478-47.972 14.865-.718 28.906-1.396 36.16-10.69 10.925-13.997 4.016-31.429-1.536-45.435-3.771-9.51-7.026-17.724-4.062-23.106 1.466-2.661 4.24-4.343 8.481-5.143 29.793-5.618 59.988.7 85.028 17.792 25.039 17.093 41.923 42.913 47.541 72.705 5.619 29.792-.699 59.988-17.792 85.027s-42.913 41.923-72.704 47.542c-7.084 1.338-14.333 1.989-21.603 1.989zM19.593 148.685c.908 24.883 12.976 47.827 33.98 64.604 25.744 20.561 62.172 29.484 95.061 23.278 29.005-5.47 54.143-21.908 70.783-46.286 16.641-24.378 22.793-53.776 17.322-82.78-5.471-29.004-21.908-54.142-46.285-70.783-24.378-16.641-53.777-22.793-82.78-17.322-3.307.624-5.403 1.815-6.41 3.643-2.282 4.143.731 11.747 4.223 20.553 5.834 14.718 13.094 33.035 1.112 48.387-8.101 10.378-22.809 11.089-38.381 11.841-12.332.596-25.083 1.212-34.326 6.968-10.318 6.425-14.996 18.822-14.299 37.897z"/><circle cx="97.707" cy="173.57" r="38" style="fill:#f16c7a"/><path class="st3" d="M97.707 213.07c-21.78 0-39.5-17.72-39.5-39.5s17.72-39.5 39.5-39.5 39.5 17.72 39.5 39.5-17.72 39.5-39.5 39.5zm0-76c-20.126 0-36.5 16.374-36.5 36.5s16.374 36.5 36.5 36.5 36.5-16.374 36.5-36.5-16.374-36.5-36.5-36.5z"/><circle class="st14" cx="179.662" cy="146.57" r="32"/><path class="st3" d="M179.662 180.07c-18.472 0-33.5-15.028-33.5-33.5s15.028-33.5 33.5-33.5 33.5 15.028 33.5 33.5-15.028 33.5-33.5 33.5zm0-64c-16.817 0-30.5 13.682-30.5 30.5 0 16.818 13.683 30.5 30.5 30.5s30.5-13.682 30.5-30.5c0-16.818-13.682-30.5-30.5-30.5z"/><circle cx="169.662" cy="73.57" r="24" style="fill:#8ac6dd"/><path class="st3" d="M169.662 99.07c-14.061 0-25.5-11.439-25.5-25.5s11.439-25.5 25.5-25.5 25.5 11.439 25.5 25.5c0 14.06-11.439 25.5-25.5 25.5zm0-48c-12.406 0-22.5 10.093-22.5 22.5s10.094 22.5 22.5 22.5 22.5-10.093 22.5-22.5-10.094-22.5-22.5-22.5z"/><path d="M51.275 214.799c-3.264 12.983-30.18 31.276-26.771 21.651 4.409-12.447-11.497-22.129-8.233-35.112 3.264-12.983 12.891-17.092 22.861-14.585s15.407 15.063 12.143 28.046z" style="fill:#ef6d7a"/><path class="st3" d="M25.562 240.641c-.925 0-1.654-.289-2.179-.865-.787-.866-.887-2.154-.294-3.827 2.026-5.721-.791-10.946-3.774-16.478-3.068-5.689-6.24-11.572-4.499-18.499 1.635-6.5 4.962-11.354 9.622-14.036 4.294-2.47 9.5-3.037 15.061-1.638 5.284 1.329 9.561 5.219 12.044 10.953 2.424 5.599 2.845 12.316 1.186 18.913-2.661 10.586-19.075 23.613-25.698 25.275a6.032 6.032 0 0 1-1.469.202zm8.139-53.09c-2.844 0-5.473.666-7.766 1.986-3.939 2.267-6.778 6.474-8.209 12.167-1.458 5.797 1.305 10.919 4.229 16.343 3.162 5.864 6.433 11.929 3.962 18.904a4.19 4.19 0 0 0-.189.688c.609-.057 2.02-.451 4.483-1.884 6.996-4.068 17.701-13.742 19.606-21.321 1.499-5.96 1.134-11.994-1.029-16.99-2.104-4.859-5.663-8.14-10.023-9.236-1.741-.438-3.438-.657-5.064-.657z"/><path d="m57.343 81.791-14.385 50.071-6.355 22.118-9.669 33.658 20.851 5.243 7.4-34.229 4.862-22.494 24.465-113.17a4.907 4.907 0 0 0-.638-3.656 4.922 4.922 0 0 0-2.987-2.184 4.944 4.944 0 0 0-5.956 3.431L61.018 69.001l-3.675 12.79z" style="fill:#87796f"/><path class="st3" d="M47.785 194.381c-.122 0-.245-.015-.366-.046l-20.851-5.243a1.503 1.503 0 0 1-1.076-1.869l30.41-105.847a1.5 1.5 0 0 1 2.882.828l-29.98 104.357 17.843 4.486L83.045 22.671a3.417 3.417 0 0 0-.441-2.54 3.428 3.428 0 0 0-2.084-1.529 3.431 3.431 0 0 0-4.148 2.391L62.459 69.415a1.5 1.5 0 1 1-2.883-.828l13.912-48.422a6.415 6.415 0 0 1 7.764-4.472 6.404 6.404 0 0 1 3.894 2.847 6.394 6.394 0 0 1 .832 4.759L49.251 193.198a1.502 1.502 0 0 1-1.466 1.183z"/><path style="fill:#d6df58" d="m55.185 158.652-18.582-4.672 6.355-22.118 17.088 4.297z"/><path class="st3" d="M55.185 160.152c-.122 0-.245-.015-.366-.045l-18.582-4.672a1.5 1.5 0 0 1-1.076-1.869l6.355-22.118a1.503 1.503 0 0 1 1.808-1.041l17.089 4.297a1.5 1.5 0 0 1 1.1 1.771l-4.862 22.494a1.5 1.5 0 0 1-1.466 1.183zm-16.712-7.249 15.573 3.916 4.229-19.56L44 133.67l-5.527 19.233z"/><path d="M236.738 107.5c-9.99-52.98-56.48-90.03-108.54-90.03-2.48 0-4.97.08-7.47.26 48.95 3.37 91.5 39.36 101.01 89.77 11.29 59.88-28.23 117.77-88.1 129.07-4.47.84-9 1.41-13.57 1.7 9.59.6 19.22.06 28.57-1.7 59.87-11.3 99.39-69.19 88.1-129.07z" style="fill:#decaad"/></g></svg>