<svg xmlns="http://www.w3.org/2000/svg" viewBox="0 0 256 256" style="enable-background:new 0 0 256 256" xml:space="preserve"><style>.st2{fill:none;stroke:#6b1d1d;stroke-width:.5;stroke-miterlimit:10}.st3{fill:#3a312a}.st4{fill:#87796f}.st14{fill:#d7e057}.st22{fill:#ef6d7a}</style><g id="Layer_1"><path class="st3" d="M167.62 228.183H140.5a1.5 1.5 0 1 1 0-3h27.12a43.87 43.87 0 0 0 33.021-14.988 1.5 1.5 0 1 1 2.258 1.976 46.872 46.872 0 0 1-35.279 16.012z"/><path d="M211.51 99.82v9.75h-19.48v-9.75c0-35.29-28.73-64.02-64.03-64.02-35.31 0-64.02 28.73-64.02 64.02v9.75h-19.5v-9.75c0-46.04 37.48-83.5 83.52-83.5 46.05 0 83.51 37.46 83.51 83.5z" style="fill:#8ac6dd"/><path class="st3" d="M211.51 111.07h-19.48a1.5 1.5 0 0 1-1.5-1.5v-9.75c0-34.474-28.051-62.52-62.53-62.52-34.474 0-62.52 28.046-62.52 62.52v9.75a1.5 1.5 0 0 1-1.5 1.5h-19.5a1.5 1.5 0 0 1-1.5-1.5v-9.75c0-46.869 38.14-85 85.02-85 46.874 0 85.01 38.131 85.01 85v9.75a1.5 1.5 0 0 1-1.5 1.5zm-17.98-3h16.479v-8.25c0-45.215-36.79-82-82.01-82-45.226 0-82.02 36.785-82.02 82v8.25h16.5v-8.25c0-36.128 29.392-65.52 65.52-65.52 36.133 0 65.53 29.393 65.53 65.52v8.25z"/><path class="st22" d="M16.649 168.141v21.512c0 11.89 9.639 21.53 21.53 21.53H54.23V109.575H38.178c-11.89 0-21.53 9.639-21.53 21.529v37.037z"/><path class="st3" d="M54.23 212.683H38.178c-12.698 0-23.029-10.331-23.029-23.03v-21.512a1.5 1.5 0 1 1 3 0v21.512c0 11.044 8.985 20.03 20.029 20.03H52.73v-98.608H38.178c-11.044 0-20.029 8.985-20.029 20.029v23.787a1.5 1.5 0 1 1-3 0v-23.787c0-12.698 10.331-23.029 23.029-23.029H54.23a1.5 1.5 0 0 1 1.5 1.5v101.608a1.5 1.5 0 0 1-1.5 1.5z"/><path class="st22" d="M54.23 211.182h18.349a8.097 8.097 0 0 0 8.097-8.097v-85.414a8.097 8.097 0 0 0-8.097-8.097H54.23v101.608z"/><path class="st3" d="M72.579 212.683H54.23a1.5 1.5 0 0 1-1.5-1.5V109.574a1.5 1.5 0 0 1 1.5-1.5h18.349c5.292 0 9.597 4.305 9.597 9.597v85.414c0 5.292-4.305 9.598-9.597 9.598zm-16.849-3h16.849a6.605 6.605 0 0 0 6.597-6.597v-85.414a6.604 6.604 0 0 0-6.597-6.597H55.73v98.608z"/><path class="st22" d="M201.77 109.574h16.051c11.891 0 21.53 9.639 21.53 21.529v58.549c0 11.89-9.639 21.53-21.53 21.53H201.77V109.574z"/><path class="st3" d="M217.822 212.683H201.77a1.5 1.5 0 0 1-1.5-1.5V109.574a1.5 1.5 0 0 1 1.5-1.5h16.052c12.698 0 23.029 10.331 23.029 23.03v58.549c0 12.699-10.331 23.03-23.029 23.03zm-14.552-3h14.552c11.044 0 20.029-8.985 20.029-20.03v-58.549c0-11.044-8.985-20.03-20.029-20.03H203.27v98.609z"/><path class="st22" d="M175.324 159.465v43.621a8.097 8.097 0 0 0 8.097 8.097h18.349V109.575h-18.349a8.097 8.097 0 0 0-8.097 8.097v41.793z"/><path class="st3" d="M201.77 212.683h-18.349c-5.292 0-9.597-4.305-9.597-9.597v-43.621a1.5 1.5 0 1 1 3 0v43.621a6.605 6.605 0 0 0 6.597 6.597h16.849v-98.608h-16.849a6.605 6.605 0 0 0-6.597 6.597v28.562a1.5 1.5 0 1 1-3 0v-28.562c0-5.292 4.305-9.597 9.597-9.597h18.349a1.5 1.5 0 0 1 1.5 1.5v101.608a1.5 1.5 0 0 1-1.5 1.5z"/><path class="st14" d="M47.911 26.402s3.408 12.659 13.222 13.246c0 0-13.1 4.525-13.321 14.202 0 0-2.578-13.572-12.925-14.059 0 .001 12.05-1.825 13.024-13.389z"/><path class="st3" d="M47.811 55.35a1.5 1.5 0 0 1-1.472-1.217c-.024-.124-2.495-12.418-11.523-12.843a1.5 1.5 0 0 1-.154-2.981c.441-.069 10.894-1.817 11.754-12.032a1.5 1.5 0 0 1 2.942-.266c.032.116 3.259 11.626 11.864 12.141a1.501 1.501 0 0 1 .402 2.915c-.121.042-12.118 4.31-12.312 12.819a1.498 1.498 0 0 1-1.501 1.464zM40.07 39.621c3.878 1.969 6.23 5.746 7.587 8.876 2.026-4.021 5.941-6.787 8.949-8.427-4.134-1.842-6.783-5.651-8.333-8.722-1.794 4.36-5.273 6.868-8.203 8.273z"/><path class="st14" d="M26.212 43.383s2.411 8.954 9.352 9.369c0 0-9.266 3.201-9.422 10.045 0 0-1.824-9.6-9.142-9.944 0 0 8.524-1.291 9.212-9.47z"/><path class="st3" d="M26.141 64.297a1.5 1.5 0 0 1-1.472-1.22c-.016-.081-1.704-8.441-7.739-8.725a1.5 1.5 0 0 1-.155-2.982c.296-.047 7.364-1.243 7.942-8.114a1.5 1.5 0 0 1 2.942-.266c.021.079 2.227 7.92 7.994 8.265a1.5 1.5 0 0 1 .4 2.915c-.081.028-8.282 2.952-8.413 8.661a1.501 1.501 0 0 1-1.499 1.466zM21.623 52.77c2.106 1.333 3.523 3.394 4.447 5.28 1.376-2.232 3.515-3.872 5.365-4.972-2.287-1.269-3.884-3.35-4.941-5.224-1.175 2.286-3.016 3.875-4.871 4.916z"/><path class="st14" d="M26.212 16.725s2.411 8.954 9.352 9.37c0 0-9.266 3.201-9.422 10.045 0 0-1.824-9.6-9.142-9.944 0 0 8.524-1.292 9.212-9.471z"/><path class="st3" d="M26.141 37.64a1.5 1.5 0 0 1-1.472-1.22c-.016-.081-1.704-8.441-7.739-8.726a1.5 1.5 0 0 1-.154-2.981c.296-.047 7.364-1.243 7.942-8.114a1.5 1.5 0 0 1 1.36-1.368 1.491 1.491 0 0 1 1.582 1.102c.021.079 2.227 7.92 7.994 8.265a1.5 1.5 0 0 1 .4 2.915c-.081.028-8.282 2.952-8.413 8.662a1.501 1.501 0 0 1-1.5 1.465zm-4.519-11.528c2.107 1.333 3.523 3.394 4.447 5.28 1.376-2.232 3.515-3.872 5.365-4.972-2.287-1.27-3.884-3.35-4.941-5.224-1.174 2.286-3.015 3.875-4.871 4.916z"/><circle cx="128" cy="98.432" r="35.25" style="fill:#fae6ca"/><path class="st3" d="M128 135.183c-20.264 0-36.75-16.486-36.75-36.75s16.486-36.75 36.75-36.75 36.75 16.486 36.75 36.75-16.486 36.75-36.75 36.75zm0-70.5c-18.61 0-33.75 15.14-33.75 33.75s15.14 33.75 33.75 33.75 33.75-15.14 33.75-33.75-15.14-33.75-33.75-33.75z"/><path d="m151.204 94.024-31.13-17.973c-3.394-1.959-7.636.49-7.636 4.409v35.945c0 3.919 4.242 6.368 7.636 4.409l31.13-17.973c3.394-1.959 3.394-6.858 0-8.817z" style="fill:#f16c7a"/><path class="st3" d="M117.529 123.006a6.571 6.571 0 0 1-3.295-.893 6.524 6.524 0 0 1-3.295-5.708V80.46a6.526 6.526 0 0 1 3.295-5.708 6.526 6.526 0 0 1 6.591 0l31.13 17.974a6.524 6.524 0 0 1 3.295 5.708 6.523 6.523 0 0 1-3.295 5.707l-31.13 17.972a6.585 6.585 0 0 1-3.296.893zm.001-46.143c-.617 0-1.233.162-1.795.487a3.552 3.552 0 0 0-1.795 3.109v35.946c0 1.298.671 2.46 1.795 3.109a3.558 3.558 0 0 0 3.59 0l31.13-17.973a3.554 3.554 0 0 0 1.795-3.109 3.554 3.554 0 0 0-1.795-3.11l-31.13-17.973a3.587 3.587 0 0 0-1.795-.486z"/><path class="st14" d="M117.992 214.682h20.016a8.992 8.992 0 0 1 8.992 8.992v7.015a8.992 8.992 0 0 1-8.992 8.992h-20.016a8.992 8.992 0 0 1-8.992-8.992v-7.015a8.992 8.992 0 0 1 8.992-8.992z"/><path class="st3" d="M138.008 241.183h-20.016c-5.786 0-10.492-4.707-10.492-10.493v-7.015c0-5.786 4.707-10.492 10.492-10.492h20.016c5.786 0 10.492 4.707 10.492 10.492v7.015c0 5.786-4.706 10.493-10.492 10.493zm-20.016-25c-4.131 0-7.492 3.361-7.492 7.492v7.015c0 4.131 3.361 7.493 7.492 7.493h20.016c4.131 0 7.492-3.361 7.492-7.493v-7.015c0-4.131-3.361-7.492-7.492-7.492h-20.016z"/><circle class="st4" cx="101" cy="184.932" r="7.75"/><path class="st3" d="M101 194.183c-5.101 0-9.25-4.149-9.25-9.25s4.149-9.25 9.25-9.25 9.25 4.149 9.25 9.25-4.149 9.25-9.25 9.25zm0-15.5c-3.446 0-6.25 2.804-6.25 6.25s2.804 6.25 6.25 6.25 6.25-2.804 6.25-6.25-2.804-6.25-6.25-6.25z"/><circle class="st4" cx="128" cy="184.932" r="7.75"/><path class="st3" d="M128 194.183c-5.101 0-9.25-4.149-9.25-9.25s4.149-9.25 9.25-9.25 9.25 4.149 9.25 9.25-4.149 9.25-9.25 9.25zm0-15.5c-3.446 0-6.25 2.804-6.25 6.25s2.804 6.25 6.25 6.25 6.25-2.804 6.25-6.25-2.804-6.25-6.25-6.25z"/><circle class="st4" cx="155" cy="184.932" r="7.75"/><path class="st3" d="M155 194.183c-5.101 0-9.25-4.149-9.25-9.25s4.149-9.25 9.25-9.25 9.25 4.149 9.25 9.25-4.149 9.25-9.25 9.25zm0-15.5c-3.446 0-6.25 2.804-6.25 6.25s2.804 6.25 6.25 6.25 6.25-2.804 6.25-6.25-2.804-6.25-6.25-6.25z"/><path d="M237.85 131.102v58.55c0 11.04-8.98 20.03-20.03 20.03h-14.55v-.01c10.84-.24 19.58-9.13 19.58-20.02v-58.55c0-10.89-8.74-19.78-19.58-20.02v-.01h14.55c11.05.001 20.03 8.99 20.03 20.03z" style="fill:#d34e5c"/></g></svg>